<svg xmlns="http://www.w3.org/2000/svg" viewBox="0 0 140 140" width="140" height="140">
  <rect x="0" y="0" width="140" height="140" rx="30" fill="#FFD23F"/>
  <g transform="translate(10.5,16.5) scale(0.85)">
    <g transform="translate(4,4)">
      <path d="M20 38 L 120 38 L 110 110 Q 70 122 30 110 Z" fill="#141210"/>
      <ellipse cx="70" cy="38" rx="50" ry="10" fill="#141210"/>
    </g>
    <path d="M20 38 L 120 38 L 110 110 Q 70 122 30 110 Z" fill="#E83A2F" stroke="#141210" stroke-width="4" stroke-linejoin="round"/>
    <ellipse cx="70" cy="38" rx="50" ry="10" fill="#E83A2F" stroke="#141210" stroke-width="4"/>
    <ellipse cx="70" cy="35" rx="46" ry="6" fill="#141210" opacity="0.25"/>
    <ellipse cx="14" cy="60" rx="6" ry="14" fill="#E83A2F" stroke="#141210" stroke-width="4"/>
    <ellipse cx="126" cy="60" rx="6" ry="14" fill="#E83A2F" stroke="#141210" stroke-width="4"/>
    <circle cx="55" cy="68" r="9" fill="#FFF6E0" stroke="#141210" stroke-width="3"/>
    <circle cx="85" cy="68" r="9" fill="#FFF6E0" stroke="#141210" stroke-width="3"/>
    <circle cx="56" cy="70" r="4" fill="#141210"/>
    <circle cx="86" cy="70" r="4" fill="#141210"/>
    <circle cx="57" cy="68" r="1.5" fill="#FFF6E0"/>
    <circle cx="87" cy="68" r="1.5" fill="#FFF6E0"/>
    <path d="M52 88 Q 70 102 88 88" stroke="#141210" stroke-width="4" fill="none" stroke-linecap="round"/>
    <circle cx="40" cy="88" r="4" fill="#FFD23F" opacity="0.9"/>
    <circle cx="100" cy="88" r="4" fill="#FFD23F" opacity="0.9"/>
    <path d="M55 22 Q 50 14 58 8" stroke="#141210" stroke-width="3" fill="none" stroke-linecap="round"/>
    <path d="M70 18 Q 65 10 73 4" stroke="#141210" stroke-width="3" fill="none" stroke-linecap="round"/>
    <path d="M85 22 Q 80 14 88 8" stroke="#141210" stroke-width="3" fill="none" stroke-linecap="round"/>
  </g>
</svg>
